<svg xmlns="http://www.w3.org/2000/svg" xmlns:xlink="http://www.w3.org/1999/xlink" viewBox="0 0 100 108.51"><defs><style>.cls-1,.cls-8{fill:none;}.cls-2{fill:#00b0bc;}.cls-3{fill:#4a6cb8;}.cls-4{fill:#6e89c7;}.cls-5{fill:#33c0c9;}.cls-6{fill:#66d0d7;}.cls-7{clip-path:url(#clip-path);}.cls-8{stroke:#f6f3f7;stroke-miterlimit:10;stroke-width:1.69px;}.cls-9{clip-path:url(#clip-path-2);}.cls-10{clip-path:url(#clip-path-3);}</style><clipPath id="clip-path"><polygon class="cls-1" points="50 108.51 100 79.64 100 28.77 50 57.64 50 108.51"/></clipPath><clipPath id="clip-path-2"><polygon class="cls-1" points="50 108.51 0 79.64 0 28.77 50 57.64 50 108.51"/></clipPath><clipPath id="clip-path-3"><polygon class="cls-1" points="50 57.64 100 28.77 50 0 0 28.87 50 57.64"/></clipPath></defs><title>3-benefits</title><g id="Layer_2" data-name="Layer 2"><g id="NatWest-longform_3-digitisation-desktop"><polygon class="cls-2" points="50 108.51 0 79.64 0 28.77 50 57.64 50 108.51"/><polygon class="cls-3" points="50 108.51 100 79.64 100 28.77 50 57.64 50 108.51"/><polygon class="cls-4" points="50 68.64 100 39.77 100 28.77 50 57.64 50 68.64"/><polygon class="cls-5" points="50 68.64 0 39.77 0 28.77 50 57.64 50 68.64"/><polygon class="cls-6" points="50 57.64 100 28.77 50 0 0 28.87 50 57.64"/><g class="cls-7"><line class="cls-8" x1="75" y1="97.05" x2="75" y2="30.43"/></g><g class="cls-9"><line class="cls-8" x1="25" y1="97.05" x2="25" y2="30.43"/></g><g class="cls-10"><line class="cls-8" x1="20.64" y1="11.88" x2="79.36" y2="45.67"/><line class="cls-8" x1="79.36" y1="11.88" x2="20.64" y2="45.67"/></g><path class="cls-8" d="M60.41,28.77A10.41,10.41,0,1,0,50,18.36V28.77Z"/><path class="cls-8" d="M39.59,28.77A10.41,10.41,0,1,1,50,18.36V28.77Z"/></g></g></svg>