<?xml version="1.0" encoding="utf-8"?>
<!-- Generator: Adobe Illustrator 23.0.4, SVG Export Plug-In . SVG Version: 6.00 Build 0)  -->
<svg version="1.1" id="Layer_1" xmlns="http://www.w3.org/2000/svg" xmlns:xlink="http://www.w3.org/1999/xlink" x="0px" y="0px"
	 viewBox="0 0 185.9 117.2" style="enable-background:new 0 0 185.9 117.2;" xml:space="preserve">
<style type="text/css">
	.st0{fill:#33C0C9;}
	.st1{fill:#4A6CB8;}
	.st2{fill:#00B0BC;}
	.st3{clip-path:url(#SVGID_2_);}
	.st4{fill:none;stroke:#6E89C7;stroke-width:0.23;stroke-miterlimit:10;}
	.st5{clip-path:url(#SVGID_4_);}
	.st6{fill:none;stroke:#33C0C9;stroke-width:0.23;stroke-miterlimit:10;}
	.st7{clip-path:url(#SVGID_6_);}
	.st8{fill:none;stroke:#00B0BC;stroke-width:0.23;stroke-miterlimit:10;}
</style>
<g>
	<g id="NatWest-longform_3-digitisation-desktop">
		<polygon class="st0" points="169.5,0 81.2,50 93,56.7 181.2,6.7 		"/>
		<polygon class="st1" points="93,56.7 181.2,6.6 181.2,64.3 93,114.4 		"/>
		<polygon class="st2" points="81.2,50 81.2,107.8 93,114.4 93,56.7 		"/>
		<g>
			<defs>
				<polygon id="SVGID_1_" points="93,56.7 181.2,6.6 181.2,64.3 93,114.4 				"/>
			</defs>
			<clipPath id="SVGID_2_">
				<use xlink:href="#SVGID_1_"  style="overflow:visible;"/>
			</clipPath>
			<g class="st3">
				<line class="st4" x1="88.3" y1="59.3" x2="185.9" y2="4"/>
				<line class="st4" x1="88.3" y1="66.6" x2="185.9" y2="11.2"/>
				<line class="st4" x1="88.3" y1="73.8" x2="185.9" y2="18.5"/>
				<line class="st4" x1="88.3" y1="81" x2="185.9" y2="25.7"/>
				<line class="st4" x1="88.3" y1="88.2" x2="185.9" y2="32.9"/>
				<line class="st4" x1="88.3" y1="95.4" x2="185.9" y2="40.1"/>
				<line class="st4" x1="88.3" y1="102.6" x2="185.9" y2="47.3"/>
				<line class="st4" x1="88.3" y1="109.8" x2="185.9" y2="54.5"/>
				<line class="st4" x1="88.3" y1="117.1" x2="185.9" y2="61.7"/>
				<line class="st4" x1="93" y1="107.4" x2="93" y2="114.6"/>
				<line class="st4" x1="105.6" y1="100.2" x2="105.6" y2="107.4"/>
				<line class="st4" x1="118.2" y1="93" x2="118.2" y2="100.2"/>
				<line class="st4" x1="130.8" y1="85.8" x2="130.8" y2="93.1"/>
				<line class="st4" x1="143.4" y1="78.7" x2="143.4" y2="85.9"/>
				<line class="st4" x1="156" y1="71.5" x2="156" y2="78.7"/>
				<line class="st4" x1="168.6" y1="64.3" x2="168.6" y2="71.5"/>
				<line class="st4" x1="181.2" y1="57.1" x2="181.2" y2="64.3"/>
				<line class="st4" x1="99.3" y1="96.6" x2="99.3" y2="103.8"/>
				<line class="st4" x1="111.9" y1="89.4" x2="111.9" y2="96.6"/>
				<line class="st4" x1="124.5" y1="82.2" x2="124.5" y2="89.5"/>
				<line class="st4" x1="137.1" y1="75.1" x2="137.1" y2="82.3"/>
				<line class="st4" x1="149.7" y1="67.9" x2="149.7" y2="75.1"/>
				<line class="st4" x1="162.3" y1="60.7" x2="162.3" y2="67.9"/>
				<line class="st4" x1="174.9" y1="53.5" x2="174.9" y2="60.7"/>
				<line class="st4" x1="93" y1="92.9" x2="93" y2="100.2"/>
				<line class="st4" x1="105.6" y1="85.8" x2="105.6" y2="93"/>
				<line class="st4" x1="118.2" y1="78.6" x2="118.2" y2="85.8"/>
				<line class="st4" x1="130.8" y1="71.4" x2="130.8" y2="78.6"/>
				<line class="st4" x1="143.4" y1="64.2" x2="143.4" y2="71.4"/>
				<line class="st4" x1="156" y1="57" x2="156" y2="64.2"/>
				<line class="st4" x1="168.6" y1="49.8" x2="168.6" y2="57"/>
				<line class="st4" x1="181.2" y1="42.7" x2="181.2" y2="49.9"/>
				<line class="st4" x1="99.3" y1="82.1" x2="99.3" y2="89.4"/>
				<line class="st4" x1="111.9" y1="75" x2="111.9" y2="82.2"/>
				<line class="st4" x1="124.5" y1="67.8" x2="124.5" y2="75"/>
				<line class="st4" x1="137.1" y1="60.6" x2="137.1" y2="67.8"/>
				<line class="st4" x1="149.7" y1="53.4" x2="149.7" y2="60.6"/>
				<line class="st4" x1="162.3" y1="46.2" x2="162.3" y2="53.4"/>
				<line class="st4" x1="174.9" y1="39" x2="174.9" y2="46.3"/>
				<line class="st4" x1="93" y1="78.5" x2="93" y2="85.7"/>
				<line class="st4" x1="105.6" y1="71.3" x2="105.6" y2="78.5"/>
				<line class="st4" x1="118.2" y1="64.1" x2="118.2" y2="71.3"/>
				<line class="st4" x1="130.8" y1="56.9" x2="130.8" y2="64.1"/>
				<line class="st4" x1="143.4" y1="49.7" x2="143.4" y2="57"/>
				<line class="st4" x1="156" y1="42.5" x2="156" y2="49.8"/>
				<line class="st4" x1="168.6" y1="35.4" x2="168.6" y2="42.6"/>
				<line class="st4" x1="181.2" y1="28.2" x2="181.2" y2="35.4"/>
				<line class="st4" x1="99.3" y1="67.7" x2="99.3" y2="74.9"/>
				<line class="st4" x1="111.9" y1="60.5" x2="111.9" y2="67.7"/>
				<line class="st4" x1="124.5" y1="53.3" x2="124.5" y2="60.5"/>
				<line class="st4" x1="137.1" y1="46.1" x2="137.1" y2="53.3"/>
				<line class="st4" x1="149.7" y1="38.9" x2="149.7" y2="46.2"/>
				<line class="st4" x1="162.3" y1="31.8" x2="162.3" y2="39"/>
				<line class="st4" x1="174.9" y1="24.6" x2="174.9" y2="31.8"/>
				<line class="st4" x1="93" y1="64" x2="93" y2="71.2"/>
				<line class="st4" x1="105.6" y1="56.8" x2="105.6" y2="64"/>
				<line class="st4" x1="118.2" y1="49.6" x2="118.2" y2="56.9"/>
				<line class="st4" x1="130.8" y1="42.5" x2="130.8" y2="49.7"/>
				<line class="st4" x1="143.4" y1="35.3" x2="143.4" y2="42.5"/>
				<line class="st4" x1="156" y1="28.1" x2="156" y2="35.3"/>
				<line class="st4" x1="168.6" y1="20.9" x2="168.6" y2="28.1"/>
				<line class="st4" x1="181.2" y1="13.7" x2="181.2" y2="20.9"/>
				<line class="st4" x1="99.3" y1="53.2" x2="99.3" y2="60.4"/>
				<line class="st4" x1="111.9" y1="46" x2="111.9" y2="53.2"/>
				<line class="st4" x1="124.5" y1="38.8" x2="124.5" y2="46.1"/>
				<line class="st4" x1="137.1" y1="31.7" x2="137.1" y2="38.9"/>
				<line class="st4" x1="149.7" y1="24.5" x2="149.7" y2="31.7"/>
				<line class="st4" x1="162.3" y1="17.3" x2="162.3" y2="24.5"/>
				<line class="st4" x1="174.9" y1="10.1" x2="174.9" y2="17.3"/>
			</g>
		</g>
		<g>
			<defs>
				<polygon id="SVGID_3_" points="81.2,50 81.2,107.8 93,114.4 93,56.7 				"/>
			</defs>
			<clipPath id="SVGID_4_">
				<use xlink:href="#SVGID_3_"  style="overflow:visible;"/>
			</clipPath>
			<g class="st5">
				<line class="st6" x1="97.6" y1="59.3" x2="0.1" y2="4"/>
				<line class="st6" x1="97.6" y1="66.6" x2="0.1" y2="11.2"/>
				<line class="st6" x1="97.6" y1="73.8" x2="0.1" y2="18.5"/>
				<line class="st6" x1="97.6" y1="81" x2="0.1" y2="25.7"/>
				<line class="st6" x1="97.6" y1="88.2" x2="0.1" y2="32.9"/>
				<line class="st6" x1="97.6" y1="95.4" x2="0.1" y2="40.1"/>
				<line class="st6" x1="97.6" y1="102.6" x2="0.1" y2="47.3"/>
				<line class="st6" x1="97.6" y1="109.8" x2="0.1" y2="54.5"/>
				<line class="st6" x1="97.6" y1="117.1" x2="0.1" y2="61.7"/>
			</g>
		</g>
		<g>
			<defs>
				<polygon id="SVGID_5_" points="169.5,0 81.2,50 93,56.7 181.2,6.7 				"/>
			</defs>
			<clipPath id="SVGID_6_">
				<use xlink:href="#SVGID_5_"  style="overflow:visible;"/>
			</clipPath>
			<g class="st7">
				<line class="st8" x1="100.2" y1="53.7" x2="86.1" y2="45.7"/>
				<line class="st8" x1="112.6" y1="46.4" x2="98.6" y2="38.4"/>
				<line class="st8" x1="125" y1="39.3" x2="111" y2="31.3"/>
				<line class="st8" x1="137.7" y1="32.1" x2="123.7" y2="24.1"/>
				<line class="st8" x1="150.4" y1="25" x2="136.4" y2="17"/>
				<line class="st8" x1="163.6" y1="18.1" x2="149.5" y2="10.1"/>
				<line class="st8" x1="176.1" y1="11" x2="162.1" y2="3"/>
				<line class="st8" x1="93" y1="49.6" x2="168.4" y2="6.6"/>
			</g>
		</g>
	</g>
</g>
</svg>
