<svg xmlns="http://www.w3.org/2000/svg" xmlns:xlink="http://www.w3.org/1999/xlink" viewBox="0 0 120 78.57"><defs><style>.cls-1,.cls-6,.cls-7,.cls-8{fill:none;}.cls-2{fill:#4a6cb8;}.cls-3{fill:#26bcc6;}.cls-4{fill:#fff;}.cls-5{clip-path:url(#clip-path);}.cls-6{stroke:#fff;}.cls-6,.cls-7,.cls-8{stroke-miterlimit:10;}.cls-6,.cls-7{stroke-width:0.23px;}.cls-7,.cls-8{stroke:#490b63;}.cls-8{stroke-width:0.23px;}.cls-9{fill:#490b63;}</style><clipPath id="clip-path"><polygon class="cls-1" points="109.47 49.73 80.35 66.52 4.79 22.91 33.91 6.11 109.47 49.73"/></clipPath></defs><title>4-start_exporting</title><g id="Layer_2" data-name="Layer 2"><g id="NatWest-longform_3-digitisation-desktop"><polygon class="cls-2" points="115.82 51.5 71.38 77.32 4.18 31.24 48.62 5.41 115.82 51.5"/><polygon class="cls-3" points="120 43.61 75.56 69.44 0 25.82 44.44 0 120 43.61"/><polygon class="cls-4" points="109.46 43.19 107.52 44.31 105.57 43.19 107.51 42.06 109.46 43.19"/><polygon class="cls-4" points="105.59 40.95 103.65 42.08 101.69 40.95 103.63 39.82 105.59 40.95"/><polygon class="cls-4" points="101.71 38.71 99.77 39.84 97.82 38.71 99.76 37.59 101.71 38.71"/><polygon class="cls-4" points="97.84 36.48 95.9 37.6 93.94 36.48 95.88 35.35 97.84 36.48"/><polygon class="cls-4" points="93.96 34.24 92.02 35.37 90.07 34.24 92.01 33.11 93.96 34.24"/><polygon class="cls-4" points="90.09 32 88.15 33.13 86.19 32 88.13 30.88 90.09 32"/><polygon class="cls-4" points="86.21 29.77 84.27 30.89 82.32 29.77 84.26 28.64 86.21 29.77"/><polygon class="cls-4" points="82.34 27.53 80.39 28.66 78.44 27.53 80.38 26.4 82.34 27.53"/><polygon class="cls-4" points="78.46 25.3 76.52 26.42 74.57 25.3 76.51 24.17 78.46 25.3"/><polygon class="cls-4" points="74.58 23.06 72.64 24.19 70.69 23.06 72.63 21.93 74.58 23.06"/><polygon class="cls-4" points="70.71 20.82 68.77 21.95 66.82 20.82 68.76 19.69 70.71 20.82"/><polygon class="cls-4" points="66.83 18.59 64.89 19.71 62.94 18.59 64.88 17.46 66.83 18.59"/><polygon class="cls-4" points="62.96 16.35 61.02 17.48 59.07 16.35 61.01 15.22 62.96 16.35"/><polygon class="cls-4" points="59.09 14.11 57.15 15.24 55.19 14.11 57.13 12.98 59.09 14.11"/><polygon class="cls-4" points="55.21 11.88 53.27 13 51.32 11.88 53.26 10.75 55.21 11.88"/><polygon class="cls-4" points="51.33 9.64 49.39 10.77 47.44 9.64 49.38 8.51 51.33 9.64"/><line class="cls-1" x1="49.09" y1="9.92" x2="107.01" y2="43.38"/><g class="cls-5"><line class="cls-6" x1="68.96" y1="65.66" x2="107.63" y2="43.2"/><line class="cls-6" x1="65.08" y1="63.42" x2="103.69" y2="40.95"/><line class="cls-6" x1="61.19" y1="61.19" x2="99.81" y2="38.72"/><line class="cls-6" x1="57.31" y1="58.95" x2="95.92" y2="36.48"/><line class="cls-6" x1="53.43" y1="56.71" x2="92.04" y2="34.24"/><line class="cls-6" x1="49.54" y1="54.48" x2="88.16" y2="32.01"/><line class="cls-6" x1="45.66" y1="52.24" x2="84.28" y2="29.77"/><line class="cls-6" x1="41.78" y1="50" x2="80.39" y2="27.53"/><line class="cls-6" x1="37.9" y1="47.76" x2="76.51" y2="25.29"/><line class="cls-6" x1="34.01" y1="45.53" x2="72.63" y2="23.06"/><line class="cls-6" x1="30.13" y1="43.29" x2="68.74" y2="20.82"/><line class="cls-6" x1="26.25" y1="41.05" x2="64.86" y2="18.58"/><line class="cls-6" x1="22.36" y1="38.82" x2="60.98" y2="16.35"/><line class="cls-6" x1="18.48" y1="36.58" x2="57.1" y2="14.11"/><line class="cls-6" x1="14.6" y1="34.34" x2="53.21" y2="11.87"/><line class="cls-6" x1="10.71" y1="32.1" x2="49.39" y2="9.64"/></g><polyline class="cls-7" points="48.69 9.86 49.64 9.86 49.64 7.06"/><polyline class="cls-7" points="52.59 12.17 53.54 12.17 53.54 9.36"/><polyline class="cls-7" points="56.49 14.48 57.44 14.48 57.44 11.67"/><polyline class="cls-7" points="60.39 16.61 61.34 16.61 61.34 13.8"/><polyline class="cls-7" points="64.29 18.91 65.23 18.91 65.23 16.1"/><polyline class="cls-7" points="68.19 21.11 69.13 21.11 69.13 18.3"/><polyline class="cls-7" points="72.08 23.4 73.03 23.4 73.03 20.59"/><line class="cls-8" x1="81.25" y1="62.2" x2="84.47" y2="60.31"/><polygon class="cls-2" points="80.73 61.34 84.05 60.45 84.14 60.61 81.79 63.1 80.73 61.34"/><path class="cls-9" d="M81.69,63.2a.53.53,0,0,0,.19-.46,1.64,1.64,0,0,0-.75-1.3.52.52,0,0,0-.53,0L55.54,76l1.07,1.82Z"/><path class="cls-2" d="M56,76.08a1.64,1.64,0,0,1,.75,1.3c0,.48-.34.67-.75.43a1.64,1.64,0,0,1-.75-1.3C55.28,76,55.62,75.84,56,76.08Z"/><path class="cls-9" d="M56.25,77.43a.25.25,0,0,0,.1-.22A.79.79,0,0,0,56,76.6a.25.25,0,0,0-.25,0l-1.82,1.09.51.86Z"/><path class="cls-2" d="M54.15,77.71a.76.76,0,0,1,.36.61c0,.22-.16.31-.36.2a.79.79,0,0,1-.35-.61C53.8,77.68,54,77.59,54.15,77.71Z"/></g></g></svg>