<svg xmlns="http://www.w3.org/2000/svg" viewBox="0 0 100 89.38"><defs><style>.cls-1{fill:#00b0bc;}.cls-2{fill:#490b63;}.cls-3{fill:#4a6cb8;}.cls-4{fill:#33c0c9;}.cls-5{fill:#fff;}.cls-6{fill:#f6f3f7;}</style></defs><title>8-six_trends</title><g id="Layer_2" data-name="Layer 2"><g id="NatWest-longform_3-digitisation-desktop"><path class="cls-1" d="M79.64,53.39a3,3,0,0,1,3-.29l2.92,1.66-6,10.33-2.89-1.64a3,3,0,0,1-1.26-2.73A9.33,9.33,0,0,1,79.64,53.39Z"/><path class="cls-2" d="M82.56,55a9.33,9.33,0,0,0-4.23,7.33c0,2.7,1.92,3.78,4.25,2.43a9.32,9.32,0,0,0,4.23-7.33C86.81,54.78,84.89,53.69,82.56,55Z"/><path class="cls-1" d="M70,58.92a3,3,0,0,1,3-.29l2.92,1.66-6,10.33L67,69a3,3,0,0,1-1.26-2.73A9.36,9.36,0,0,1,70,58.92Z"/><path class="cls-2" d="M72.92,60.57a9.33,9.33,0,0,0-4.23,7.33c0,2.7,1.92,3.78,4.26,2.43A9.37,9.37,0,0,0,77.18,63C77.17,60.31,75.26,59.22,72.92,60.57Z"/><path class="cls-1" d="M32.76,77.39a3,3,0,0,1,3-.29l2.93,1.66-6,10.33-2.89-1.64a3,3,0,0,1-1.25-2.73A9.33,9.33,0,0,1,32.76,77.39Z"/><path class="cls-2" d="M35.67,79.05a9.31,9.31,0,0,0-4.23,7.32c0,2.7,1.92,3.78,4.26,2.43a9.32,9.32,0,0,0,4.23-7.33C39.92,78.78,38,77.7,35.67,79.05Z"/><polygon class="cls-3" points="46.76 46.86 100 16.53 100 48.64 46.76 79.02 46.76 46.86"/><polygon class="cls-1" points="17.79 30.36 46.76 46.86 46.76 79.02 17.79 62.49 17.79 30.36"/><polygon class="cls-4" points="71.04 0 100 16.5 46.76 46.86 17.79 30.33 71.04 0"/><polygon class="cls-3" points="24.09 82.68 28.88 75.64 31.51 56.74 44.36 49.42 44.36 77.76 24.09 89.19 24.09 82.68"/><polygon class="cls-1" points="24.09 82.68 0 68.6 0 75.11 24.09 89.19 24.09 82.68"/><polygon class="cls-4" points="28.88 75.64 4.79 61.56 0 68.6 24.09 82.68 28.88 75.64"/><polygon class="cls-5" points="31.51 56.74 7.42 42.66 4.79 61.56 28.88 75.64 31.51 56.74"/><polygon class="cls-4" points="44.36 49.42 20.26 35.34 7.42 42.66 31.51 56.74 44.36 49.42"/><polygon class="cls-6" points="31.51 56.74 36.53 53.88 36.53 71.28 28.88 75.64 31.51 56.74"/><path class="cls-3" d="M22.11,82.62a2.92,2.92,0,0,1,1.32,2.29c0,.85-.6,1.18-1.33.76a2.92,2.92,0,0,1-1.33-2.29C20.78,82.54,21.37,82.2,22.11,82.62Z"/><path class="cls-3" d="M2,70.85a2.92,2.92,0,0,1,1.32,2.29c0,.84-.6,1.18-1.33.76A3,3,0,0,1,.69,71.6C.7,70.76,1.29,70.42,2,70.85Z"/></g></g></svg>